<?xml version="1.0" encoding="utf-8"?>
<!-- Generator: Adobe Illustrator 26.0.0, SVG Export Plug-In . SVG Version: 6.00 Build 0)  -->
<svg version="1.1" id="Capa_1" xmlns="http://www.w3.org/2000/svg" xmlns:xlink="http://www.w3.org/1999/xlink" x="0px" y="0px"
	 viewBox="0 0 243 28" style="enable-background:new 0 0 243 28;" xml:space="preserve">
<style type="text/css">
	.st0{clip-path:url(#SVGID_00000092454973020340470420000018214556845134085054_);}
	.st1{fill:#EC7025;}
</style>
<desc>Created with Sketch.</desc>
<g>
	<g>
		<g>
			<defs>
				<path id="SVGID_1_" d="M25.1,1.2c0,0,0.3-0.7,0.4-0.9C25.6,0.2,25.8,0,25.9,0c0.1,0,0.3,0.1,0.5,0.4c0.1,0.1,0.3,0.4,0.4,0.8
					c0.2,0.5,0.4,1.1,0.4,1.3c0,0.1,0.3,1,0.4,1.8c0,0.4,0.1,0.7,0.1,1c0,0.6,0,1.1,0,1.1S28.5,4.7,29,4c0.5-0.8,1.4-2,2-2.3
					s0.8,0.7,0.8,1c0,0.1,0,0.9-0.2,1.8c-0.1,0.5-0.2,1-0.4,1.4c-0.1,0.3-0.2,0.5-0.2,0.5s1.8-1.4,2.6-1.8c0.8-0.4,1.8-0.8,2.1-0.4
					c0.1,0.2,0.2,0.7,0,1.2C35.6,6.1,35,6.9,35,6.9s2.4-0.9,2.8-0.2c0.3,0.5-0.1,1-0.2,1.1c0,0-0.5,0.8-1.1,1.4
					c-0.8,0.7-1.8,1.4-1.8,1.4s2.3-0.1,3.3,0.1c0.9,0.2,1.7,0.4,1.8,0.9c0,0.2-0.3,0.7-1.1,1.1c-1,0.5-2.4,0.8-2.4,0.8
					s1.5,0.5,2.3,1.1c0.8,0.6,0.6,1,0.6,1s0,1-2.5,1c-1.9,0-2.3-0.1-2.3-0.1s1.5,1,2.2,1.7c0.7,0.7,0.9,1.4,0.8,1.7
					c-0.3,0.4-0.4,0.6-1.8,0.6c-1.1-0.2-1.3-0.4-1.3-0.4s0.8,1.2,1.1,1.8c0.2,0.6,0.3,1.2,0.1,1.4c-0.2,0.2-0.8,0.1-2-0.6
					c-1.3-0.7-2.9-2.3-2.9-2.3s0.7,1.4,0.9,3.3c0.2,1.8-0.2,2.7-0.6,2.9c-0.4,0.1-1-0.3-1.7-1.4c-0.3-0.4-0.6-1-0.8-1.5
					c-0.4-1-0.7-2-0.7-2s0,2.5-0.5,4.1c-0.5,1.5-1,2.4-1.5,2.4c-0.5,0-0.9-1.3-1-1.7c0-0.2-0.2-0.9-0.2-1.7
					c-0.1-0.9-0.1-1.8-0.1-1.8s-0.9,1.8-2,2.9c-1.1,1.1-1.6,1-1.8,0.9c-0.2-0.1-0.4-0.6-0.3-1.3c0-0.2,0-0.3,0-0.5
					c0.1-0.5,0.2-1,0.2-1s-2,1.8-2.6,1.3c-0.5-0.4,0.1-1.9,0.2-2.1c0-0.1,0.4-1.1,1.2-2.4c0.8-1.3,2.1-2.9,2.1-2.9s-1.9,1.3-3.8,1.8
					s-4,0.5-4.2-0.2s1.2-1.6,1.7-2.1c0.3-0.2,1.5-1,2.7-1.5c1.3-0.6,2.5-0.9,2.5-0.9s-2.4,0.3-4.4-0.2c-0.5-0.1-1-0.2-1.4-0.3
					c-1.2-0.3-2-0.8-2-1.3c0-0.7,1.5-1.1,1.6-1.1c0,0,0.5-0.2,1.1-0.3c0.7-0.1,1.5-0.2,1.5-0.2s-1.4-0.6-2-1.2
					c-0.6-0.6-1.4-1.3-1.1-1.8s1.4-0.6,2.1-0.5c0.3,0,1,0.1,1.6,0.3c0.8,0.2,1.6,0.5,1.6,0.5s-1.8-2-2.2-2.9C16,4.3,16,4.1,16.1,4
					c0.1-0.1,0.5-0.5,1.8,0c1.3,0.5,2.5,1.4,2.5,1.4S19,1.9,19.6,1.5c0.3-0.2,1.2,0.5,1.4,0.7c0.1,0.1,0.5,0.4,0.8,0.8
					c0.5,0.6,1,1.2,1,1.2s-0.2-2,0.2-3.3C23.6-0.2,23.8,0,23.9,0C24,0,24.4-0.1,25.1,1.2L25.1,1.2z"/>
			</defs>
			<clipPath id="SVGID_00000178188917937921970990000004914238102938339478_">
				<use xlink:href="#SVGID_1_"  style="overflow:visible;"/>
			</clipPath>
			<g style="clip-path:url(#SVGID_00000178188917937921970990000004914238102938339478_);">
				
					<image style="overflow:visible;enable-background:new    ;" width="715" height="715" xlink:href="8CE4CFFE.jpg"  transform="matrix(3.998174e-02 0 0 3.998174e-02 11.6843 -0.6421)">
				</image>
			</g>
		</g>
	</g>
</g>
<g>
	<path class="st1" d="M45.8,15.8h2.9c0.1,0.8,0.4,1.5,1.7,1.5c0.9,0,1.4-0.4,1.4-1.1c0-0.7-0.4-0.9-1.7-1c-3-0.3-4-1.3-4-3.5
		c0-2,1.5-3.4,4.1-3.4c2.6,0,4,1.1,4.2,3.4h-2.8c-0.1-0.8-0.5-1.2-1.4-1.2S49,10.7,49,11.3c0,0.6,0.3,0.9,1.6,1c2.7,0.3,4,1,4,3.4
		c0,2-1.5,3.6-4.3,3.6C47.4,19.4,45.9,18.1,45.8,15.8z"/>
	<path class="st1" d="M58.5,8.3h3.9l3.3,10.9h-3.3l-0.6-2.1h-3.5l-0.6,2.1H55L58.5,8.3z M59.1,15h2.3l-1.2-4.2L59.1,15z"/>
	<path class="st1" d="M67.1,8.3h3.1v8.5h4v2.4h-7L67.1,8.3L67.1,8.3z"/>
	<path class="st1" d="M75.2,14.8V8.2h3.1v6.3c0,1.5,0.3,2.3,1.6,2.3s1.6-0.7,1.6-2.3V8.2h3.1v6.4c0,3.2-1.8,4.6-4.7,4.6
		C76.9,19.4,75.2,17.8,75.2,14.8z"/>
	<path class="st1" d="M86.7,8.3h3.9c3.8,0,5.7,2,5.7,5.3v0.1c0,3.4-2,5.5-5.7,5.5h-3.9L86.7,8.3L86.7,8.3z M90.5,16.8
		c1.8,0,2.7-0.9,2.7-3v-0.1c0-2.1-0.8-3-2.7-3h-0.7v6.1H90.5z"/>
	<path class="st1" d="M105.6,13.8L105.6,13.8c0-3.4,2.3-5.7,5.4-5.7c2.7,0,4.7,1.3,5,4.2h-3.2c-0.1-1.1-0.7-1.7-1.8-1.7
		c-1.4,0-2.2,1.1-2.2,3.1v0.1c0,2,0.9,3.1,2.3,3.1c1,0,1.8-0.6,2-1.8h3c-0.2,2.8-2.2,4.3-5,4.3C107.4,19.4,105.6,17.2,105.6,13.8z"
		/>
	<path class="st1" d="M117,13.8L117,13.8c0-3.4,2.4-5.7,5.7-5.7s5.7,2.1,5.7,5.5v0.1c0,3.3-2.2,5.7-5.7,5.7
		C119.1,19.4,117,17.1,117,13.8z M125,13.7L125,13.7c0-2.1-0.9-3.2-2.5-3.2c-1.5,0-2.4,1.1-2.4,3.1v0.1c0,2,0.9,3.2,2.5,3.2
		C124.1,16.9,125,15.7,125,13.7z"/>
	<path class="st1" d="M129.7,8.2h3.4l3.4,6.2V8.2h2.7v10.9h-2.9l-3.9-6.9v6.9h-2.7V8.2z"/>
	<path class="st1" d="M156.7,18.5c-0.4,0.1-0.9,0.2-1.4,0.2c-3.4,0-5.6-2.3-5.6-5.6V13c0-3.3,2.4-5.6,5.7-5.6c3.3,0,5.7,2.1,5.7,5.5
		V13c0,1.9-0.7,3.4-2,4.5l1,1.1l-1.7,1.7L156.7,18.5z M154.4,16.1l1.7-1.6l0.9,1c0.4-0.5,0.7-1.4,0.7-2.5v-0.1c0-2-0.9-3.1-2.5-3.1
		s-2.4,1.1-2.4,3.1V13C152.9,14.6,153.5,15.7,154.4,16.1z"/>
	<path class="st1" d="M162.1,15.7v-5.2h2.7v4.8c0,0.9,0.3,1.4,1.1,1.4c0.8,0,1.3-0.5,1.3-1.5v-4.6h2.7v8h-2.7v-1.2
		c-0.4,0.9-1.2,1.5-2.5,1.5C163.3,18.6,162.1,17.6,162.1,15.7z"/>
	<path class="st1" d="M171.5,8.3c0-0.8,0.6-1.5,1.5-1.5s1.5,0.6,1.5,1.5c0,0.8-0.6,1.4-1.5,1.4C172.1,9.7,171.5,9.1,171.5,8.3z
		 M171.6,10.4h2.7v8h-2.7V10.4z"/>
	<path class="st1" d="M175.9,10.4h2.7v1.6c0.5-1.2,1.3-1.7,2.5-1.7v2.6c-1.6-0.1-2.5,0.5-2.5,1.7v3.8h-2.7V10.4z"/>
	<path class="st1" d="M181.8,14.5L181.8,14.5c0-2.7,1.9-4.3,4.3-4.3s4.2,1.5,4.2,4.1v0.1c0,2.6-1.9,4.1-4.3,4.1
		C183.7,18.6,181.8,17.1,181.8,14.5z M187.5,14.5L187.5,14.5c0-1.5-0.5-2.1-1.5-2.1s-1.5,0.7-1.5,2.1v0.1c0,1.4,0.5,2.1,1.5,2.1
		C187,16.6,187.5,15.8,187.5,14.5z"/>
	<path class="st1" d="M191.5,10.4h2.7v1.2c0.4-0.8,1.3-1.4,2.4-1.4c1.8,0,3.3,1.4,3.3,4.1v0.1c0,2.7-1.5,4.1-3.3,4.1
		c-1.2,0-2.1-0.6-2.4-1.4v3.9h-2.7L191.5,10.4L191.5,10.4z M197.1,14.5L197.1,14.5c0-1.5-0.6-2.1-1.5-2.1S194,13,194,14.4v0.1
		c0,1.4,0.6,2.1,1.5,2.1S197.1,15.8,197.1,14.5z"/>
	<path class="st1" d="M201,10.4h2.7v1.6c0.5-1.2,1.3-1.7,2.5-1.7v2.6c-1.6-0.1-2.5,0.5-2.5,1.7v3.8H201V10.4z"/>
	<path class="st1" d="M206.7,16.2c0-1.9,1.5-2.6,4.1-2.6h0.8v-0.2c0-0.8-0.2-1.3-1-1.3c-0.7,0-1,0.4-1,0.9h-2.5
		c0.1-1.9,1.6-2.9,3.7-2.9c2.1,0,3.5,0.9,3.5,3v5.1h-2.6v-0.9c-0.3,0.6-1,1.1-2.3,1.1C208,18.6,206.7,17.9,206.7,16.2z M211.6,15.7
		v-0.5h-0.7c-1,0-1.5,0.2-1.5,0.9c0,0.4,0.3,0.8,0.9,0.8C211.1,16.8,211.6,16.3,211.6,15.7z"/>
	<path class="st1" d="M217.8,14.4l-2.4-3.9h3.1l1.2,2.1l1.2-2.1h2.7l-2.5,3.7l2.7,4.3h-3.1l-1.4-2.4l-1.4,2.4h-2.7L217.8,14.4z"/>
	<path class="st1" d="M224.6,8.3c0-0.8,0.6-1.5,1.5-1.5s1.5,0.6,1.5,1.5c0,0.8-0.6,1.4-1.5,1.4C225.2,9.7,224.6,9.1,224.6,8.3z
		 M224.8,10.4h2.7v8h-2.7V10.4z"/>
	<path class="st1" d="M228.7,16.2c0-1.9,1.5-2.6,4.1-2.6h0.8v-0.2c0-0.8-0.2-1.3-1-1.3c-0.7,0-1,0.4-1,0.9h-2.6
		c0.1-1.9,1.6-2.9,3.7-2.9c2.1,0,3.5,0.9,3.5,3v5.1h-2.6v-0.9c-0.3,0.6-1,1.1-2.3,1.1C229.9,18.6,228.7,17.9,228.7,16.2z
		 M233.6,15.7v-0.5h-0.7c-1,0-1.5,0.2-1.5,0.9c0,0.4,0.3,0.8,0.9,0.8C233,16.8,233.6,16.3,233.6,15.7z"/>
</g>
</svg>
