<?xml version="1.0" encoding="utf-8"?>
<!-- Generator: Adobe Illustrator 26.0.1, SVG Export Plug-In . SVG Version: 6.00 Build 0)  -->
<svg version="1.1" id="Capa_1" xmlns="http://www.w3.org/2000/svg" xmlns:xlink="http://www.w3.org/1999/xlink" x="0px" y="0px"
	 viewBox="0 0 595.3 841.9" style="enable-background:new 0 0 595.3 841.9;" xml:space="preserve">
<style type="text/css">
	.st0{fill-rule:evenodd;clip-rule:evenodd;fill:#FFFFFF;stroke:#7C7C7C;stroke-miterlimit:10;}
	.st1{clip-path:url(#SVGID_00000036214427349007075160000012660753359859827374_);}
</style>
<polygon class="st0" points="299.2,471.4 289.6,471.4 275.5,442.4 258,442.7 265.6,421.3 286.8,421.3 291.3,443.8 299.2,443.8 
	307.3,443.8 311.8,421.3 333,421.3 340.3,442.7 322.8,442.4 308.7,471.4 "/>
<polygon class="st0" points="299.2,514.5 289.6,514.5 275.5,486.1 258,486.1 265.6,464.4 277.2,464.9 291.3,486.9 299.2,486.9 
	307.3,486.9 320.3,464.9 333,464.4 340.3,486.1 322.8,486.1 308.7,514.5 "/>
<polygon class="st0" points="299.2,554.2 289.6,553.7 275.5,525.2 258,525.2 265.6,504.1 277.2,504.1 291.3,526.6 299.2,526.6 
	307.3,526.6 320.3,504.7 333,504.1 340.3,525.2 322.8,525.2 308.7,553.7 "/>
<polygon class="st0" points="299.2,601 292.7,601 277.2,572.3 261.1,572.3 268.2,551.1 278.6,551.1 291.6,574 299.2,574 306.8,574 
	318.9,551.7 330.4,551.1 337.5,572.3 320.9,572.3 305.4,601 "/>
<polygon class="st0" points="299.2,642.1 293.2,642.1 278,613.4 263.1,613.4 269.6,592.3 279.7,592.3 292.1,614.5 299.2,614.5 
	306.2,614.5 317.8,592.8 328.8,592.3 335.2,613.4 319.7,613.4 305.4,642.1 "/>
<polygon class="st0" points="299.5,682.7 293.8,682.7 281.4,654.2 267.9,654.2 273.8,632.5 280.9,633.1 293.5,655.1 299.5,655.1 
	305.4,655.1 316.9,633.1 325.1,632.5 330.7,654.2 317.5,654.2 304.5,682.7 "/>
<polygon class="st0" points="299.5,720.4 293.8,720.4 281.4,691.7 267.9,691.7 273.8,670.9 280.9,670.9 293.5,693.4 299.5,693.4 
	305.4,693.4 316.9,671.1 325.1,670.9 330.7,691.7 317.5,691.7 304.5,720.4 "/>
<polygon class="st0" points="299.5,751.2 293.8,751.2 281.4,728.9 267.9,728.9 273.8,712.6 280.9,712.6 293.5,730 299.5,730 
	305.4,730 316.9,712.6 325.1,712.6 330.7,728.9 317.5,728.9 304.5,751.2 "/>
<polygon class="st0" points="299.5,787.2 293.8,787.2 281.4,765.2 267.9,765.2 273.8,748.6 280.9,748.6 293.5,766.1 299.5,766.1 
	305.4,766.1 316.9,748.6 325.1,748.6 330.7,765.2 317.5,765.2 304.5,787.2 "/>
<polygon class="st0" points="299.5,832 293,832 277.5,805 260.9,805 268.5,784.1 276.4,784.7 291.8,805.8 299.5,805.8 307,805.8 
	321.1,785.2 330.7,784.1 337.8,805 321.7,805 305.4,832 "/>
<g>
	<g>
		<g>
			<defs>
				<path id="SVGID_1_" d="M284.2,32c0,0,3.4-9,5.1-11.3s3.9-4.5,5.4-4.5s4.5,1.1,7,5.1c2,3.2,3.7,6.6,5.1,10.1
					c2.5,6.8,5.1,14.6,5.6,16.9c2.3,7.9,3.9,16,4.8,24.2c0.6,4.8,0.8,9,1.1,13.2c0.2,4.8,0.1,9.6-0.3,14.4c0,0,11.5-22,18-32.1
					c6.8-10.4,18.3-26.5,26.8-30.7s10.7,9.6,11,13c0.1,7.9-0.5,15.9-2,23.7c-1.3,6-2.9,11.9-4.8,17.7c-0.8,2.4-1.7,4.7-2.8,7
					c0,0,23.5-17.8,33.6-23.1c10.1-5.1,24-10.7,28.2-5.1c1.7,2.2,2,9-0.3,15.8c-3.7,9.9-11,20.3-11,20.3s31.5-11.3,36.6-2.2
					c3.4,5.9-1.1,13.5-2,14.7c-4.1,6.5-9.1,12.4-14.6,17.7c-7.5,6.7-15.5,12.8-24,18.3c0,0,30.1-1.4,42.8,0.8
					c12.4,2.3,22.8,5.1,24.2,11.8c0.6,3.1-4.5,9.3-14.6,13.8c-13,5.9-31.5,9.9-31.5,9.9s20.3,6.2,30.4,14.1c10.1,8.2,7.9,13,7.9,13
					s-0.6,13-32.4,13.5c-25.1-0.6-29.9-1.7-29.9-1.7s19.5,12.7,29.3,21.7c9.6,9,12.1,18.9,9.9,22c-3.7,4.8-5.4,8.5-23.1,7.3
					c-14.1-2.5-17.5-5.1-17.5-5.1s11,15.8,14.1,23.4c2.8,7.6,4.2,16.1,1.4,18c-2.8,2.3-9.9,1.7-26.8-7.9S356.3,279,356.3,279
					c5.9,13.6,9.9,28.1,11.8,42.8c3.1,24.2-3.1,35.8-8.5,37.5c-5.1,1.4-13.5-4-22.5-18c-3.4-5.4-7.9-12.7-11-20.3
					c-5.6-13-9.6-25.9-9.6-25.9s-0.6,33.2-7,53.5s-12.7,31.3-19.2,31.3c-6.8,0-11.5-16.9-12.7-22.5c-0.6-2.5-2-12.4-3.1-22.2
					c-1.1-11.5-1.4-23.1-1.4-23.1s-11.3,24.2-25.7,38s-20.6,13.2-23.1,11.8c-2.2-1.4-4.8-7.9-3.9-17.5c0.3-2.2,0.3-4.2,0.6-6.5
					c0.9-7,2-12.7,2-12.7s-25.9,23.4-34.1,16.9c-5.9-4.8,0.8-24.8,2.2-28.2c0.6-1.7,5.1-14.9,15.5-32.1s27-37.8,27-37.8
					s-24.5,17.5-49.8,23.7s-51.8,6.8-54.6-3.1s15.2-21.4,22-27c3.4-2.8,20.3-12.7,35.8-19.7c10.5-4.7,21.3-8.6,32.4-11.8
					c0,0-32.1,3.4-57.8-2.5c-6.8-1.4-13-2.8-18.6-4.5c-15.8-4.5-25.6-11-25.6-17.5c0.3-9.6,20-14.4,21.1-14.6c0.6,0,7-2.2,13.8-3.4
					c8.7-1.4,19.1-2.3,19.1-2.3s-17.7-8.2-26.2-16.3c-7.6-7.3-18-17.2-14.9-23.9s17.8-7.9,27.6-6.8c7,0.6,14,1.7,20.9,3.4
					c7.1,1.8,14.2,3.9,21,6.4c0,0-23.1-25.6-29-38.6s-5.4-15.2-3.9-16.9s6.2-5.9,23.7,0.3S224,87.7,224,87.7s-20-46.5-11.3-51.3
					c3.9-2.3,16.3,7,18.6,9c3.9,3.3,7.6,6.9,11,10.7c6.8,7.3,13.5,16.1,13.5,16.1s-2.5-26.5,3.1-43.4c5.9-15.8,8.7-12.4,9.3-12.4
					C269.6,16.5,275,14.2,284.2,32L284.2,32z"/>
			</defs>
			<clipPath id="SVGID_00000092419841376962307690000009021652067309623202_">
				<use xlink:href="#SVGID_1_"  style="overflow:visible;"/>
			</clipPath>
			<g style="clip-path:url(#SVGID_00000092419841376962307690000009021652067309623202_);">
				
					<image style="overflow:visible;enable-background:new    ;" width="714" height="714" xlink:href="C:\Users\ezequ\OneDrive\The Deft Flamink\Salud con quiropraxia\Recursos\F8675C02.png"  transform="matrix(0.5207 0 0 0.5207 108.57 7.73)">
				</image>
			</g>
		</g>
	</g>
</g>
</svg>
