<?xml version="1.0" encoding="utf-8"?>
<!-- Generator: Adobe Illustrator 26.2.1, SVG Export Plug-In . SVG Version: 6.00 Build 0)  -->
<svg version="1.1" id="Capa_1" xmlns="http://www.w3.org/2000/svg" xmlns:xlink="http://www.w3.org/1999/xlink" x="0px" y="0px"
	 viewBox="0 0 220.3 218.7" style="enable-background:new 0 0 220.3 218.7;" xml:space="preserve">
<style type="text/css">
	.st0{clip-path:url(#SVGID_00000021799786484981822350000004150184652777628312_);}
</style>
<g>
	<g>
		<g>
			<defs>
				<path id="SVGID_1_" d="M102.6,15.9c0,0,1.9-5.1,2.9-6.3c1-1.3,2.2-2.5,3-2.5s2.5,0.6,4,2.9c0.6,1,1.9,3.2,2.9,5.7
					c1.4,3.8,2.9,8.2,3.2,9.5c0.3,1,2.1,7.4,2.7,13.6c0.3,2.7,0.5,5.1,0.6,7.4c0.2,4.6-0.2,8.1-0.2,8.1s6.5-12.4,10.1-18.1
					c3.8-5.9,10.3-14.9,15.1-17.3s6,5.4,6.2,7.3c0,1,0.2,6.8-1.1,13.3c-0.8,3.6-1.7,7.3-2.7,10c-0.8,2.4-1.6,4-1.6,4
					s13.2-10,18.9-13c5.7-2.9,13.5-6,15.8-2.9c1,1.3,1.1,5.1-0.2,8.9c-2.1,5.5-6.2,11.4-6.2,11.4s17.7-6.3,20.6-1.3
					c1.9,3.3-0.6,7.6-1.1,8.2c-0.2,0.3-3.5,5.5-8.2,10c-5.9,5.4-13.5,10.3-13.5,10.3s17-0.8,24.1,0.5c7,1.3,12.8,2.9,13.6,6.7
					c0.3,1.7-2.5,5.2-8.2,7.8c-7.3,3.3-17.7,5.5-17.7,5.5s11.4,3.5,17.1,7.9c5.7,4.6,4.4,7.3,4.4,7.3s-0.3,7.3-18.2,7.6
					c-14.1-0.3-16.8-1-16.8-1s10.9,7.1,16.5,12.2c5.4,5.1,6.8,10.6,5.5,12.4c-2.1,2.7-3,4.8-13,4.1c-7.9-1.4-9.8-2.9-9.8-2.9
					s6.2,8.9,7.9,13.2c1.6,4.3,2.4,9,0.8,10.1c-1.6,1.3-5.5,1-15.1-4.4c-9.5-5.4-21.7-17.3-21.7-17.3s4.9,10.5,6.7,24.1
					c1.7,13.6-1.7,20.1-4.8,21.1c-2.9,0.8-7.6-2.2-12.7-10.1c-1.9-3-4.4-7.1-6.2-11.4c-3.2-7.3-5.4-14.6-5.4-14.6s-0.3,18.7-4,30.1
					c-3.6,11.4-7.1,17.6-10.8,17.6c-3.8,0-6.5-9.5-7.1-12.7c-0.3-1.4-1.1-7-1.7-12.5c-0.6-6.5-0.8-13-0.8-13s-6.3,13.6-14.4,21.4
					c-8.1,7.8-11.6,7.4-13,6.7c-1.3-0.8-2.7-4.4-2.2-9.8c0.2-1.3,0.2-2.4,0.3-3.6c0.5-4,1.1-7.1,1.1-7.1S53.6,194,49,190.4
					c-3.3-2.7,0.5-13.9,1.3-15.8c0.3-1,2.9-8.4,8.7-18.1c5.9-9.7,15.2-21.2,15.2-21.2s-13.8,9.8-28,13.3s-29.2,3.8-30.7-1.7
					s8.6-12,12.4-15.2c1.9-1.6,11.4-7.1,20.1-11.1c9.5-4.3,18.2-6.7,18.2-6.7s-18.1,1.9-32.5-1.4c-3.8-0.8-7.3-1.6-10.5-2.5
					c-8.9-2.5-14.4-6.2-14.4-9.8C9,94.7,20,92,20.7,91.8c0.3,0,4-1.3,7.8-1.9c4.9-0.8,10.8-1.3,10.8-1.3s-10-4.6-14.7-9.2
					c-4.3-4.1-10.1-9.7-8.4-13.5s10-4.4,15.5-3.8c2.4,0.2,7.1,0.8,11.7,1.9c6,1.4,11.9,3.6,11.9,3.6S42.2,53.3,38.9,46
					c-3.3-7.3-3-8.6-2.2-9.5s3.5-3.3,13.3,0.2c9.8,3.5,18.7,10.6,18.7,10.6s-11.3-26.1-6.3-28.8c2.2-1.3,9.2,4,10.5,5.1
					c0.6,0.5,3.5,3,6.2,6c3.8,4.1,7.6,9,7.6,9s-1.4-14.9,1.7-24.4c3.3-8.9,4.9-7,5.2-7C94.4,7.2,97.4,5.9,102.6,15.9L102.6,15.9z"/>
			</defs>
			<clipPath id="SVGID_00000142139209949028672960000000461293003312106926_">
				<use xlink:href="#SVGID_1_"  style="overflow:visible;"/>
			</clipPath>
			<g style="clip-path:url(#SVGID_00000142139209949028672960000000461293003312106926_);">
				
					<image style="overflow:visible;enable-background:new    ;" width="715" height="715" xlink:href="AD9F153.jpg"  transform="matrix(0.2949 0 0 0.2949 3.7967 2.2917)">
				</image>
			</g>
		</g>
	</g>
</g>
</svg>
