<?xml version="1.0" encoding="utf-8"?>
<!-- Generator: Adobe Illustrator 26.0.0, SVG Export Plug-In . SVG Version: 6.00 Build 0)  -->
<svg version="1.1" id="Capa_1" xmlns="http://www.w3.org/2000/svg" xmlns:xlink="http://www.w3.org/1999/xlink" x="0px" y="0px"
	 viewBox="0 0 1440 481" style="enable-background:new 0 0 1440 481;" xml:space="preserve">
<style type="text/css">
	.st0{fill-rule:evenodd;clip-rule:evenodd;fill:#C9B7D9;}
	.st1{opacity:0.1116;fill-rule:evenodd;clip-rule:evenodd;fill:#FFFFFF;enable-background:new    ;}
	.st2{opacity:0.1116;}
	.st3{fill-rule:evenodd;clip-rule:evenodd;fill:#FFFFFF;}
</style>
<rect id="Rectangle" x="1" class="st0" width="1439" height="480"/>
<path id="Rectangle_00000158712384179619635290000004752271007136007060_" class="st1" d="M1334,100h106v218h-106c-2.8,0-5-2.2-5-5
	V105C1329,102.2,1331.2,100,1334,100z"/>
<g id="Group-4" transform="translate(618.000000, 293.000000)" class="st2">
	<path id="Rectangle-Copy-8" class="st3" d="M53,0h158c2.8,0,5,2.2,5,5v182H48V5C48,2.2,50.2,0,53,0z"/>
	<path id="Rectangle-Copy-9" class="st3" d="M5,26h158c2.8,0,5,2.2,5,5v157H0V31C0,28.2,2.2,26,5,26z"/>
</g>
<path id="Rectangle-Copy-7" class="st1" d="M1286,126h153v218h-153c-2.8,0-5-2.2-5-5V131C1281,128.2,1283.2,126,1286,126z"/>
<path id="Rectangle-Copy-10" class="st1" d="M1,50h108c2.8,0,5,2.2,5,5v208c0,2.8-2.2,5-5,5H1V50z"/>
<path id="Rectangle-Copy-11" class="st1" d="M0,76h61c2.8,0,5,2.2,5,5v208c0,2.8-2.2,5-5,5H0V76z"/>
</svg>
